<svg xmlns="http://www.w3.org/2000/svg" version="1.1" xmlns:xlink="http://www.w3.org/1999/xlink" xmlns:svgjs="http://svgjs.dev/svgjs" width="765" height="625" viewBox="0 0 540.91201171875 300" class="svg-animations " style="background-color: rgb(255, 255, 255);"><svg viewBox="0 0 132.98028564453125 140.02015686035156" width="100" height="100" x="45.07600097656251" y="100" style="fill: rgb(133, 187, 101);"><svg width="133" height="135" viewBox="0 0 133 135" xmlns="http://www.w3.org/2000/svg">
	<g clip-path="url(#clip0)">
	<path d="M85.0028 107.447C84.7053 106.313 84.8811 105.355 83.2045 104.019C80.825 102.481 71.5094 97.5696 62.5724 108.175C61.6801 109.228 60.95 110.415 60.3551 111.697C59.2329 113.883 56.3801 121.466 66.9936 129.495C75.7819 136.147 92.0604 137.699 100.538 128.861C100.727 128.672 100.849 128.429 100.903 128.172C100.984 127.822 101.078 127.457 101.16 127.093C101.511 125.663 99.7805 124.664 98.7259 125.663C92.9527 131.168 84.489 133.516 77.0122 130.439C67.9265 126.702 65.1413 119.914 64.3436 115.246C64.1002 113.829 65.8579 112.898 66.8449 113.95C75.1464 122.627 86.8145 114.288 85.0028 107.447Z"/>
	<path d="M130.877 34.9071C128.498 33.0451 124.942 33.4364 122.224 35.8517C119.764 38.0376 115.113 44.5278 108.001 55.6867C107.23 56.8876 106.162 58.5473 104.972 60.4094C103.647 62.4739 102.16 64.7812 100.727 67.0346C100.173 67.7632 99.429 68.5593 98.9152 69.0046C98.8612 68.8697 98.8206 68.7212 98.78 68.5728C100.321 62.4873 102.485 54.6613 104.58 47.0915C107.703 35.7977 110.651 25.138 111.111 21.7512C112.03 15.0451 110.259 9.71524 106.825 8.78421C104.783 8.23098 100.686 8.87866 96.2652 19.4304C95.7785 20.5908 94.8997 23.8967 93.5612 28.9161C91.2492 37.6058 87.7474 50.7482 84.4755 58.9251C84.4755 58.9251 83.7048 60.6927 82.6637 62.3254C82.1229 63.162 80.9196 63.243 80.2842 62.4739C80.2842 62.4604 80.2706 62.4604 80.2706 62.4469C80.1219 62.2715 80.0137 62.0691 79.9597 61.8397C79.7433 60.9356 79.5405 59.8966 79.3377 58.6553C78.878 55.9161 78.7969 52.2999 78.6888 47.7257C78.6212 45.1485 78.5536 42.2475 78.4183 38.9551C78.202 34.0706 78.1209 28.7002 78.0398 23.9506C77.9451 17.5683 77.864 12.5218 77.5125 10.4978C76.174 2.64478 71.9962 -0.431685 68.4403 0.0135925C64.8439 0.45887 61.261 4.69575 61.8964 12.9536C62.6265 22.5338 62.248 44.4873 61.1123 57.3599C60.8554 58.6148 60.3416 60.1665 59.5709 61.1785C59.3681 60.9086 59.0842 60.4634 58.7597 59.7752C58.6515 59.5323 58.5704 59.3839 58.5028 59.2085C56.4072 54.1215 53.96 45.4184 51.5804 37.0121C49.0115 27.9311 46.5914 19.3494 44.4957 14.5863C40.9939 6.63878 36.4781 7.40789 35.1802 7.82619C31.5026 9.02708 29.6368 13.9791 30.8401 19.3359C36.2888 43.7452 42.711 68.4514 44.5633 74.0646C44.8337 74.8876 45.334 77.8562 45.6044 88.5023C45.6179 90.6343 45.0636 91.6733 44.5228 91.9161C43.8738 92.2265 42.6705 91.7542 41.3995 90.6882C40.5207 89.9596 38.8577 88.0031 36.9378 85.7362C31.2322 79.0166 22.5792 68.8427 15.2917 67.1695C9.85649 65.9146 5.77333 66.198 3.15038 68.0196C1.39273 69.234 0.338141 71.0556 0.0271725 73.4574C-0.0404294 73.9431 0.148856 74.4289 0.527427 74.7527C2.06875 76.0346 7.24706 79.6238 8.91006 80.7707C16.6572 87.4229 22.2547 95.8966 24.6883 104.654C27.2437 113.843 32.9223 117.607 37.073 120.346C40.9804 122.937 43.8197 124.921 45.9829 126.594C46.3886 126.904 46.7536 127.241 47.0916 127.592C46.8347 127.053 46.5914 126.513 46.3615 125.96V125.973C46.348 125.946 46.348 125.919 46.3345 125.892C46.1722 125.487 46.0235 125.083 45.8748 124.678C45.8207 124.529 45.7801 124.394 45.7261 124.246C45.6044 123.895 45.4962 123.531 45.3881 123.18C45.3475 123.045 45.3069 122.91 45.2664 122.775C45.1717 122.424 45.0771 122.06 44.9824 121.709C44.9419 121.547 44.9013 121.385 44.8608 121.223C44.7661 120.819 44.685 120.414 44.6039 120.009C44.5768 119.874 44.5498 119.726 44.5363 119.577C44.4822 119.267 44.4281 118.957 44.3875 118.646C44.3605 118.471 44.3335 118.309 44.3199 118.134C44.2659 117.729 44.2253 117.324 44.1983 116.919C44.1847 116.744 44.1712 116.582 44.1577 116.406C44.1442 116.258 44.1307 116.123 44.1307 115.975C44.1307 115.961 44.1307 115.948 44.1307 115.934C43.8602 110.901 44.8202 105.72 47.1863 100.862C54.6495 85.4933 73.186 79.0571 88.5857 86.5053C97.9688 91.0391 104.026 99.6882 105.635 109.228C105.635 109.228 105.635 109.228 105.635 109.241C105.648 109.835 105.635 110.402 105.608 110.982C106.541 107.231 107.298 102.778 108.042 98.4469C109.042 92.5638 109.988 87.0046 111.273 83.4694C113.558 77.222 119.669 66.3194 125.064 56.6987C127.322 52.6778 129.458 48.8727 131.27 45.4858C134.866 38.7797 131.878 35.6898 130.877 34.9071Z"/>
	</g>
	</svg></svg><svg x="155.0760009765625" y="132.8499994277954" style="fill: rgb(133, 187, 101);"><path d="M2.97 3.41L6.36 3.41L6.36 29L2.97 29L2.97 3.41ZM5.63 14.92L17.09 14.92L17.09 17.70L5.63 17.70L5.63 14.92ZM5.63 3.41L18.83 3.41L18.83 6.18L5.63 6.18L5.63 3.41ZM23.12 3.41L26.51 3.41L26.51 29L23.12 29L23.12 3.41ZM48.99 3.41L52.35 3.41L52.35 29L48.94 29L36.05 9.26L36.05 29L32.66 29L32.66 3.41L36.05 3.41L48.99 23.20L48.99 3.41ZM68.19 3.41L68.13 5.67L59.66 29L56.20 29L65.95 3.41L68.19 3.41ZM78.71 29L75.23 29L66.74 5.67L66.69 3.41L68.92 3.41L78.71 29ZM60.42 19.53L74.79 19.53L74.79 22.30L60.42 22.30L60.42 19.53ZM98.47 3.41L101.83 3.41L101.83 29L98.42 29L85.54 9.26L85.54 29L82.14 29L82.14 3.41L85.54 3.41L98.47 23.20L98.47 3.41ZM123.28 20.86L123.28 20.86L126.65 20.86Q126.39 23.29 125.26 25.20Q124.14 27.12 122.08 28.24Q120.02 29.35 116.95 29.35L116.95 29.35Q114.70 29.35 112.86 28.51Q111.02 27.66 109.71 26.11Q108.39 24.55 107.67 22.36Q106.96 20.18 106.96 17.49L106.96 17.49L106.96 14.94Q106.96 12.25 107.67 10.06Q108.39 7.87 109.73 6.31Q111.08 4.74 112.97 3.90Q114.87 3.05 117.25 3.05L117.25 3.05Q120.15 3.05 122.15 4.14Q124.15 5.23 125.27 7.16Q126.39 9.08 126.65 11.62L126.65 11.62L123.28 11.62Q123.03 9.82 122.36 8.53Q121.69 7.24 120.46 6.54Q119.23 5.83 117.25 5.83L117.25 5.83Q115.54 5.83 114.25 6.48Q112.96 7.13 112.09 8.33Q111.22 9.52 110.78 11.19Q110.34 12.86 110.34 14.90L110.34 14.90L110.34 17.49Q110.34 19.37 110.73 21.02Q111.13 22.67 111.94 23.92Q112.75 25.17 113.99 25.88Q115.24 26.59 116.95 26.59L116.95 26.59Q119.11 26.59 120.39 25.91Q121.68 25.22 122.33 23.94Q122.99 22.65 123.28 20.86ZM133.96 26.24L147.52 26.24L147.52 29L133.96 29L133.96 26.24ZM131.26 3.41L134.65 3.41L134.65 29L131.26 29L131.26 3.41ZM133.96 14.41L145.72 14.41L145.72 17.17L133.96 17.17L133.96 14.41ZM133.96 3.41L147.34 3.41L147.34 6.18L133.96 6.18L133.96 3.41ZM172.09 29L161.72 3.41L165.01 3.41L173.39 24.27L181.76 3.41L185.06 3.41L174.66 29L172.09 29ZM160.65 29L160.65 3.41L163.55 3.41L164.02 19.02L164.02 29L160.65 29ZM182.74 19.02L183.22 3.41L186.12 3.41L186.12 29L182.74 29L182.74 19.02ZM201.92 3.41L201.87 5.67L193.39 29L189.93 29L199.69 3.41L201.92 3.41ZM212.45 29L208.97 29L200.48 5.67L200.43 3.41L202.66 3.41L212.45 29ZM194.15 19.53L208.53 19.53L208.53 22.30L194.15 22.30L194.15 19.53ZM232.21 3.41L235.56 3.41L235.56 29L232.15 29L219.27 9.26L219.27 29L215.88 29L215.88 3.41L219.27 3.41L232.21 23.20L232.21 3.41ZM251.40 3.41L251.35 5.67L242.88 29L239.41 29L249.17 3.41L251.40 3.41ZM261.93 29L258.45 29L249.96 5.67L249.91 3.41L252.14 3.41L261.93 29ZM243.63 19.53L258.01 19.53L258.01 22.30L243.63 22.30L243.63 19.53ZM274.78 16.26L284.08 16.26L284.08 25.63Q283.61 26.33 282.57 27.20Q281.53 28.07 279.71 28.71Q277.89 29.35 275.03 29.35L275.03 29.35Q272.69 29.35 270.73 28.53Q268.77 27.72 267.34 26.14Q265.90 24.57 265.12 22.31Q264.34 20.05 264.34 17.19L264.34 17.19L264.34 15.20Q264.34 12.34 265.02 10.09Q265.69 7.84 267.01 6.26Q268.33 4.69 270.25 3.87Q272.16 3.05 274.64 3.05L274.64 3.05Q277.58 3.05 279.55 4.07Q281.53 5.08 282.65 6.85Q283.76 8.63 284.08 10.89L284.08 10.89L280.69 10.89Q280.46 9.51 279.78 8.36Q279.11 7.22 277.86 6.53Q276.61 5.83 274.64 5.83L274.64 5.83Q272.87 5.83 271.56 6.48Q270.26 7.13 269.42 8.35Q268.58 9.56 268.16 11.28Q267.75 13.00 267.75 15.17L267.75 15.17L267.75 17.19Q267.75 19.40 268.27 21.14Q268.79 22.88 269.75 24.10Q270.72 25.33 272.07 25.96Q273.41 26.59 275.04 26.59L275.04 26.59Q276.86 26.59 277.98 26.28Q279.11 25.98 279.74 25.55Q280.37 25.12 280.71 24.73L280.71 24.73L280.71 19.00L274.78 19.00L274.78 16.26ZM292.39 26.24L305.95 26.24L305.95 29L292.39 29L292.39 26.24ZM289.69 3.41L293.08 3.41L293.08 29L289.69 29L289.69 3.41ZM292.39 14.41L304.15 14.41L304.15 17.17L292.39 17.17L292.39 14.41ZM292.39 3.41L305.77 3.41L305.77 6.18L292.39 6.18L292.39 3.41ZM310.15 29L310.15 3.41L318.62 3.41Q321.50 3.41 323.50 4.29Q325.49 5.16 326.54 6.88Q327.59 8.59 327.59 11.09L327.59 11.09Q327.59 12.85 326.87 14.30Q326.16 15.75 324.83 16.76Q323.51 17.77 321.66 18.26L321.66 18.26L320.71 18.63L312.75 18.63L312.71 15.87L318.73 15.87Q320.55 15.87 321.77 15.23Q322.98 14.59 323.60 13.50Q324.21 12.41 324.21 11.09L324.21 11.09Q324.21 9.61 323.63 8.50Q323.05 7.40 321.81 6.79Q320.57 6.18 318.62 6.18L318.62 6.18L313.54 6.18L313.54 29L310.15 29ZM328.73 29L325.11 29L318.88 17.40L322.42 17.38L328.73 28.79L328.73 29Z"/></svg><svg x="180.71600036621095" y="167.1500005722046" style="fill: rgb(120, 133, 135);"><path d="M4.56 19L4.86 16.75L8.12 6.32L9.55 6.32L9.27 8.39L5.95 19L4.56 19ZM0.50 6.32L2.67 6.32L5.45 16.87L5.65 19L4.18 19L0.50 6.32ZM12.34 19L12.67 16.79L15.32 6.32L17.47 6.32L13.79 19L12.34 19ZM8.34 6.32L9.87 6.32L13.05 16.57L13.42 19L12.04 19L8.63 8.37L8.34 6.32ZM24.95 19.23L24.95 19.23Q23.63 19.23 22.55 18.78Q21.48 18.33 20.71 17.51Q19.95 16.69 19.54 15.57Q19.13 14.44 19.13 13.11L19.13 13.11L19.13 12.61Q19.13 11.07 19.58 9.85Q20.04 8.64 20.82 7.80Q21.61 6.95 22.61 6.52Q23.60 6.09 24.67 6.09L24.67 6.09Q26.03 6.09 27.02 6.55Q28.01 7.02 28.64 7.86Q29.27 8.70 29.58 9.83Q29.88 10.96 29.88 12.30L29.88 12.30L29.88 13.27L20.41 13.27L20.41 11.50L27.71 11.50L27.71 11.34Q27.67 10.49 27.37 9.70Q27.07 8.90 26.43 8.38Q25.78 7.87 24.67 7.87L24.67 7.87Q23.93 7.87 23.31 8.18Q22.69 8.49 22.24 9.10Q21.80 9.71 21.55 10.59Q21.30 11.46 21.30 12.61L21.30 12.61L21.30 13.11Q21.30 14.01 21.56 14.80Q21.81 15.59 22.29 16.19Q22.78 16.79 23.48 17.13Q24.18 17.46 25.07 17.46L25.07 17.46Q26.21 17.46 27.01 17.00Q27.81 16.53 28.41 15.74L28.41 15.74L29.72 16.79Q29.31 17.41 28.68 17.97Q28.04 18.53 27.12 18.88Q26.20 19.23 24.95 19.23ZM43.44 17.45L43.44 17.45Q44.21 17.45 44.87 17.14Q45.53 16.82 45.95 16.26Q46.37 15.71 46.43 14.99L46.43 14.99L48.49 14.99Q48.43 16.12 47.74 17.08Q47.04 18.05 45.91 18.64Q44.79 19.23 43.44 19.23L43.44 19.23Q42.01 19.23 40.95 18.73Q39.89 18.23 39.19 17.35Q38.50 16.47 38.15 15.33Q37.80 14.18 37.80 12.91L37.80 12.91L37.80 12.41Q37.80 11.14 38.15 9.99Q38.50 8.85 39.19 7.97Q39.89 7.09 40.95 6.59Q42.01 6.09 43.44 6.09L43.44 6.09Q44.93 6.09 46.04 6.69Q47.16 7.29 47.79 8.33Q48.43 9.37 48.49 10.68L48.49 10.68L46.43 10.68Q46.37 9.89 45.99 9.26Q45.61 8.63 44.96 8.25Q44.31 7.87 43.44 7.87L43.44 7.87Q42.45 7.87 41.77 8.26Q41.10 8.65 40.71 9.31Q40.31 9.98 40.14 10.78Q39.97 11.58 39.97 12.41L39.97 12.41L39.97 12.91Q39.97 13.74 40.14 14.55Q40.30 15.36 40.69 16.01Q41.09 16.67 41.76 17.06Q42.43 17.45 43.44 17.45ZM58.41 16.83L58.41 16.83L58.41 10.30Q58.41 9.55 58.11 9.00Q57.81 8.44 57.21 8.14Q56.61 7.83 55.73 7.83L55.73 7.83Q54.91 7.83 54.30 8.11Q53.68 8.39 53.34 8.85Q52.99 9.31 52.99 9.84L52.99 9.84L50.82 9.84Q50.82 9.16 51.18 8.49Q51.53 7.82 52.19 7.28Q52.85 6.73 53.78 6.41Q54.71 6.09 55.86 6.09L55.86 6.09Q57.25 6.09 58.31 6.55Q59.37 7.02 59.97 7.97Q60.57 8.91 60.57 10.33L60.57 10.33L60.57 16.23Q60.57 16.87 60.69 17.58Q60.80 18.30 61.02 18.81L61.02 18.81L61.02 19L58.76 19Q58.59 18.63 58.50 18.00Q58.41 17.37 58.41 16.83ZM56.26 11.31L58.78 11.31L58.80 12.84L56.61 12.84Q55.69 12.84 54.96 12.98Q54.23 13.13 53.74 13.42Q53.25 13.71 52.99 14.15Q52.73 14.59 52.73 15.18L52.73 15.18Q52.73 15.78 53.00 16.27Q53.27 16.76 53.82 17.05Q54.36 17.34 55.16 17.34L55.16 17.34Q56.16 17.34 56.92 16.91Q57.68 16.49 58.13 15.88Q58.58 15.27 58.62 14.70L58.62 14.70L59.54 15.74Q59.46 16.23 59.10 16.83Q58.73 17.43 58.13 17.97Q57.53 18.52 56.70 18.88Q55.88 19.23 54.84 19.23L54.84 19.23Q53.55 19.23 52.59 18.73Q51.62 18.23 51.09 17.38Q50.55 16.53 50.55 15.47L50.55 15.47Q50.55 14.45 50.95 13.67Q51.35 12.89 52.10 12.37Q52.85 11.85 53.91 11.58Q54.96 11.31 56.26 11.31L56.26 11.31ZM66.09 6.32L66.15 8.31L66.15 19L63.98 19L63.98 6.32L66.09 6.32ZM70.11 6.25L70.11 6.25L70.10 8.27Q69.83 8.21 69.59 8.19Q69.35 8.17 69.05 8.17L69.05 8.17Q68.30 8.17 67.72 8.41Q67.15 8.64 66.75 9.06Q66.35 9.48 66.12 10.06Q65.89 10.64 65.82 11.34L65.82 11.34L65.21 11.69Q65.21 10.54 65.44 9.53Q65.67 8.52 66.15 7.74Q66.63 6.96 67.38 6.53Q68.12 6.09 69.15 6.09L69.15 6.09Q69.39 6.09 69.69 6.14Q70.00 6.19 70.11 6.25ZM77.16 19.23L77.16 19.23Q75.83 19.23 74.76 18.78Q73.69 18.33 72.92 17.51Q72.15 16.69 71.74 15.57Q71.33 14.44 71.33 13.11L71.33 13.11L71.33 12.61Q71.33 11.07 71.79 9.85Q72.25 8.64 73.03 7.80Q73.82 6.95 74.81 6.52Q75.81 6.09 76.88 6.09L76.88 6.09Q78.23 6.09 79.22 6.55Q80.21 7.02 80.85 7.86Q81.48 8.70 81.79 9.83Q82.09 10.96 82.09 12.30L82.09 12.30L82.09 13.27L72.62 13.27L72.62 11.50L79.92 11.50L79.92 11.34Q79.88 10.49 79.58 9.70Q79.28 8.90 78.63 8.38Q77.99 7.87 76.88 7.87L76.88 7.87Q76.14 7.87 75.52 8.18Q74.89 8.49 74.45 9.10Q74.00 9.71 73.76 10.59Q73.51 11.46 73.51 12.61L73.51 12.61L73.51 13.11Q73.51 14.01 73.76 14.80Q74.02 15.59 74.50 16.19Q74.99 16.79 75.69 17.13Q76.38 17.46 77.27 17.46L77.27 17.46Q78.42 17.46 79.22 17.00Q80.02 16.53 80.61 15.74L80.61 15.74L81.93 16.79Q81.52 17.41 80.88 17.97Q80.25 18.53 79.33 18.88Q78.41 19.23 77.16 19.23ZM98.05 16.83L98.05 16.83L98.05 10.30Q98.05 9.55 97.75 9.00Q97.45 8.44 96.86 8.14Q96.26 7.83 95.38 7.83L95.38 7.83Q94.56 7.83 93.94 8.11Q93.33 8.39 92.98 8.85Q92.64 9.31 92.64 9.84L92.64 9.84L90.47 9.84Q90.47 9.16 90.82 8.49Q91.17 7.82 91.83 7.28Q92.50 6.73 93.43 6.41Q94.36 6.09 95.51 6.09L95.51 6.09Q96.89 6.09 97.95 6.55Q99.01 7.02 99.62 7.97Q100.22 8.91 100.22 10.33L100.22 10.33L100.22 16.23Q100.22 16.87 100.33 17.58Q100.44 18.30 100.66 18.81L100.66 18.81L100.66 19L98.40 19Q98.24 18.63 98.14 18.00Q98.05 17.37 98.05 16.83ZM95.91 11.31L98.43 11.31L98.45 12.84L96.26 12.84Q95.33 12.84 94.61 12.98Q93.88 13.13 93.39 13.42Q92.89 13.71 92.64 14.15Q92.38 14.59 92.38 15.18L92.38 15.18Q92.38 15.78 92.65 16.27Q92.92 16.76 93.46 17.05Q94.01 17.34 94.80 17.34L94.80 17.34Q95.80 17.34 96.56 16.91Q97.32 16.49 97.78 15.88Q98.23 15.27 98.26 14.70L98.26 14.70L99.19 15.74Q99.11 16.23 98.74 16.83Q98.38 17.43 97.78 17.97Q97.17 18.52 96.35 18.88Q95.52 19.23 94.49 19.23L94.49 19.23Q93.20 19.23 92.23 18.73Q91.27 18.23 90.73 17.38Q90.20 16.53 90.20 15.47L90.20 15.47Q90.20 14.45 90.60 13.67Q91.00 12.89 91.75 12.37Q92.50 11.85 93.55 11.58Q94.61 11.31 95.91 11.31L95.91 11.31ZM103.62 19L103.62 1L105.80 1L105.80 16.54L105.61 19L103.62 19ZM114.36 12.55L114.36 12.55L114.36 12.80Q114.36 14.18 114.04 15.36Q113.71 16.54 113.07 17.41Q112.44 18.27 111.53 18.75Q110.61 19.23 109.43 19.23L109.43 19.23Q108.22 19.23 107.31 18.82Q106.41 18.40 105.79 17.62Q105.16 16.83 104.79 15.72Q104.43 14.61 104.29 13.21L104.29 13.21L104.29 12.13Q104.43 10.73 104.79 9.61Q105.16 8.50 105.79 7.71Q106.41 6.92 107.31 6.50Q108.21 6.09 109.41 6.09L109.41 6.09Q110.60 6.09 111.53 6.55Q112.45 7.01 113.08 7.87Q113.71 8.72 114.04 9.91Q114.36 11.10 114.36 12.55ZM112.18 12.80L112.18 12.80L112.18 12.55Q112.18 11.61 112.01 10.77Q111.83 9.93 111.45 9.29Q111.06 8.65 110.43 8.28Q109.79 7.91 108.87 7.91L108.87 7.91Q108.05 7.91 107.44 8.20Q106.84 8.48 106.42 8.95Q106.00 9.43 105.73 10.03Q105.47 10.63 105.34 11.28L105.34 11.28L105.34 14.10Q105.53 14.92 105.96 15.68Q106.38 16.43 107.10 16.91Q107.82 17.39 108.89 17.39L108.89 17.39Q109.77 17.39 110.40 17.04Q111.02 16.68 111.42 16.05Q111.81 15.41 112.00 14.58Q112.18 13.75 112.18 12.80ZM116.53 12.80L116.53 12.80L116.53 12.53Q116.53 11.16 116.93 9.98Q117.33 8.80 118.08 7.93Q118.83 7.06 119.89 6.57Q120.96 6.09 122.29 6.09L122.29 6.09Q123.62 6.09 124.69 6.57Q125.77 7.06 126.52 7.93Q127.28 8.80 127.68 9.98Q128.07 11.16 128.07 12.53L128.07 12.53L128.07 12.80Q128.07 14.17 127.68 15.34Q127.28 16.52 126.52 17.39Q125.77 18.26 124.71 18.75Q123.64 19.23 122.31 19.23L122.31 19.23Q120.97 19.23 119.91 18.75Q118.84 18.26 118.08 17.39Q117.33 16.52 116.93 15.34Q116.53 14.17 116.53 12.80ZM118.70 12.53L118.70 12.53L118.70 12.80Q118.70 13.75 118.92 14.59Q119.14 15.43 119.60 16.07Q120.05 16.71 120.73 17.08Q121.41 17.45 122.31 17.45L122.31 17.45Q123.20 17.45 123.87 17.08Q124.55 16.71 124.99 16.07Q125.44 15.43 125.67 14.59Q125.89 13.75 125.89 12.80L125.89 12.80L125.89 12.53Q125.89 11.59 125.67 10.76Q125.44 9.92 124.99 9.27Q124.54 8.62 123.86 8.24Q123.19 7.87 122.29 7.87L122.29 7.87Q121.39 7.87 120.72 8.24Q120.05 8.62 119.60 9.27Q119.14 9.92 118.92 10.76Q118.70 11.59 118.70 12.53ZM138.66 19L138.55 16.07L138.55 6.32L140.73 6.32L140.73 19L138.66 19ZM138.96 13.40L138.96 13.40L139.86 13.38Q139.86 14.64 139.60 15.71Q139.34 16.79 138.75 17.57Q138.16 18.36 137.21 18.79Q136.27 19.23 134.91 19.23L134.91 19.23Q133.98 19.23 133.21 18.96Q132.45 18.70 131.89 18.13Q131.34 17.57 131.04 16.67Q130.75 15.77 130.75 14.50L130.75 14.50L130.75 6.32L132.91 6.32L132.91 14.52Q132.91 15.38 133.11 15.94Q133.30 16.49 133.63 16.81Q133.97 17.14 134.38 17.27Q134.80 17.39 135.25 17.39L135.25 17.39Q136.63 17.39 137.44 16.86Q138.25 16.33 138.60 15.42Q138.96 14.51 138.96 13.40ZM142.48 6.32L149.33 6.32L149.33 7.98L142.48 7.98L142.48 6.32ZM144.80 15.85L144.80 3.24L146.96 3.24L146.96 15.86Q146.96 16.50 147.16 16.83Q147.36 17.16 147.68 17.27Q148.00 17.37 148.36 17.37L148.36 17.37Q148.63 17.37 148.93 17.32Q149.23 17.27 149.38 17.23L149.38 17.23L149.39 19Q149.13 19.08 148.72 19.16Q148.30 19.23 147.71 19.23L147.71 19.23Q146.92 19.23 146.25 18.92Q145.58 18.60 145.19 17.86Q144.80 17.11 144.80 15.85L144.80 15.85ZM160.49 20.15L161.39 17.69L164.92 6.32L167.24 6.32L162.15 20.96Q161.98 21.43 161.69 21.97Q161.40 22.52 160.96 23.01Q160.51 23.50 159.88 23.81Q159.26 24.12 158.39 24.12L158.39 24.12Q158.13 24.12 157.73 24.05Q157.34 23.98 157.17 23.93L157.17 23.93L157.16 22.18Q157.25 22.19 157.46 22.21Q157.66 22.22 157.75 22.22L157.75 22.22Q158.48 22.22 159 22.03Q159.52 21.84 159.87 21.38Q160.23 20.93 160.49 20.15L160.49 20.15ZM156.43 6.32L158.80 6.32L162.09 16.16L162.66 18.45L161.10 19.25L156.43 6.32ZM168.43 12.80L168.43 12.80L168.43 12.53Q168.43 11.16 168.83 9.98Q169.23 8.80 169.98 7.93Q170.73 7.06 171.80 6.57Q172.86 6.09 174.19 6.09L174.19 6.09Q175.52 6.09 176.60 6.57Q177.67 7.06 178.42 7.93Q179.18 8.80 179.58 9.98Q179.98 11.16 179.98 12.53L179.98 12.53L179.98 12.80Q179.98 14.17 179.58 15.34Q179.18 16.52 178.42 17.39Q177.67 18.26 176.61 18.75Q175.55 19.23 174.21 19.23L174.21 19.23Q172.88 19.23 171.81 18.75Q170.74 18.26 169.99 17.39Q169.23 16.52 168.83 15.34Q168.43 14.17 168.43 12.80ZM170.60 12.53L170.60 12.53L170.60 12.80Q170.60 13.75 170.82 14.59Q171.05 15.43 171.50 16.07Q171.95 16.71 172.63 17.08Q173.31 17.45 174.21 17.45L174.21 17.45Q175.10 17.45 175.78 17.08Q176.45 16.71 176.89 16.07Q177.34 15.43 177.57 14.59Q177.80 13.75 177.80 12.80L177.80 12.80L177.80 12.53Q177.80 11.59 177.57 10.76Q177.34 9.92 176.89 9.27Q176.44 8.62 175.76 8.24Q175.09 7.87 174.19 7.87L174.19 7.87Q173.30 7.87 172.62 8.24Q171.95 8.62 171.50 9.27Q171.05 9.92 170.82 10.76Q170.60 11.59 170.60 12.53ZM190.56 19L190.45 16.07L190.45 6.32L192.63 6.32L192.63 19L190.56 19ZM190.86 13.40L190.86 13.40L191.77 13.38Q191.77 14.64 191.50 15.71Q191.24 16.79 190.65 17.57Q190.07 18.36 189.12 18.79Q188.17 19.23 186.81 19.23L186.81 19.23Q185.88 19.23 185.12 18.96Q184.35 18.70 183.80 18.13Q183.25 17.57 182.95 16.67Q182.65 15.77 182.65 14.50L182.65 14.50L182.65 6.32L184.82 6.32L184.82 14.52Q184.82 15.38 185.01 15.94Q185.20 16.49 185.54 16.81Q185.87 17.14 186.29 17.27Q186.70 17.39 187.15 17.39L187.15 17.39Q188.53 17.39 189.34 16.86Q190.15 16.33 190.51 15.42Q190.86 14.51 190.86 13.40ZM198.04 6.32L198.09 8.31L198.09 19L195.93 19L195.93 6.32L198.04 6.32ZM202.05 6.25L202.05 6.25L202.04 8.27Q201.77 8.21 201.53 8.19Q201.29 8.17 200.99 8.17L200.99 8.17Q200.24 8.17 199.66 8.41Q199.09 8.64 198.69 9.06Q198.29 9.48 198.06 10.06Q197.84 10.64 197.77 11.34L197.77 11.34L197.16 11.69Q197.16 10.54 197.38 9.53Q197.61 8.52 198.09 7.74Q198.57 6.96 199.32 6.53Q200.06 6.09 201.09 6.09L201.09 6.09Q201.33 6.09 201.63 6.14Q201.94 6.19 202.05 6.25ZM212.05 6.32L212.17 8.84L212.17 19L209.99 19L209.99 6.32L212.05 6.32ZM211.72 12.18L211.72 12.18L210.71 12.14Q210.73 10.84 211.05 9.74Q211.38 8.63 212.03 7.81Q212.67 6.99 213.63 6.54Q214.59 6.09 215.86 6.09L215.86 6.09Q216.75 6.09 217.50 6.34Q218.25 6.59 218.80 7.13Q219.35 7.67 219.66 8.51Q219.96 9.36 219.96 10.55L219.96 10.55L219.96 19L217.79 19L217.79 10.66Q217.79 9.66 217.46 9.06Q217.13 8.46 216.52 8.19Q215.91 7.91 215.09 7.91L215.09 7.91Q214.13 7.91 213.48 8.25Q212.84 8.59 212.45 9.19Q212.06 9.79 211.89 10.56Q211.72 11.32 211.72 12.18ZM219.94 10.98L219.94 10.98L218.48 11.43Q218.50 10.39 218.83 9.43Q219.16 8.46 219.80 7.71Q220.44 6.96 221.38 6.53Q222.32 6.09 223.52 6.09L223.52 6.09Q224.54 6.09 225.33 6.36Q226.13 6.63 226.67 7.18Q227.21 7.74 227.50 8.61Q227.78 9.47 227.78 10.67L227.78 10.67L227.78 19L225.60 19L225.60 10.64Q225.60 9.58 225.26 8.99Q224.93 8.39 224.33 8.15Q223.72 7.91 222.89 7.91L222.89 7.91Q222.18 7.91 221.63 8.16Q221.07 8.41 220.70 8.83Q220.32 9.26 220.13 9.81Q219.94 10.36 219.94 10.98ZM230.48 12.80L230.48 12.80L230.48 12.53Q230.48 11.16 230.88 9.98Q231.28 8.80 232.03 7.93Q232.78 7.06 233.85 6.57Q234.91 6.09 236.24 6.09L236.24 6.09Q237.57 6.09 238.65 6.57Q239.72 7.06 240.47 7.93Q241.23 8.80 241.63 9.98Q242.03 11.16 242.03 12.53L242.03 12.53L242.03 12.80Q242.03 14.17 241.63 15.34Q241.23 16.52 240.47 17.39Q239.72 18.26 238.66 18.75Q237.60 19.23 236.26 19.23L236.26 19.23Q234.93 19.23 233.86 18.75Q232.79 18.26 232.04 17.39Q231.28 16.52 230.88 15.34Q230.48 14.17 230.48 12.80ZM232.65 12.53L232.65 12.53L232.65 12.80Q232.65 13.75 232.88 14.59Q233.10 15.43 233.55 16.07Q234 16.71 234.68 17.08Q235.36 17.45 236.26 17.45L236.26 17.45Q237.15 17.45 237.83 17.08Q238.50 16.71 238.95 16.07Q239.39 15.43 239.62 14.59Q239.85 13.75 239.85 12.80L239.85 12.80L239.85 12.53Q239.85 11.59 239.62 10.76Q239.39 9.92 238.94 9.27Q238.49 8.62 237.81 8.24Q237.14 7.87 236.24 7.87L236.24 7.87Q235.35 7.87 234.67 8.24Q234 8.62 233.55 9.27Q233.10 9.92 232.88 10.76Q232.65 11.59 232.65 12.53ZM246.80 6.32L246.91 9.03L246.91 19L244.75 19L244.75 6.32L246.80 6.32ZM246.40 12.18L246.40 12.18L245.50 12.14Q245.51 10.84 245.88 9.74Q246.26 8.63 246.94 7.81Q247.62 6.99 248.56 6.54Q249.50 6.09 250.65 6.09L250.65 6.09Q251.59 6.09 252.34 6.34Q253.09 6.59 253.62 7.14Q254.16 7.69 254.44 8.56Q254.72 9.44 254.72 10.69L254.72 10.69L254.72 19L252.54 19L252.54 10.67Q252.54 9.67 252.25 9.07Q251.95 8.46 251.39 8.19Q250.83 7.91 250.01 7.91L250.01 7.91Q249.20 7.91 248.54 8.25Q247.88 8.59 247.40 9.19Q246.93 9.79 246.66 10.56Q246.40 11.32 246.40 12.18ZM263.26 19.23L263.26 19.23Q261.94 19.23 260.87 18.78Q259.79 18.33 259.03 17.51Q258.26 16.69 257.85 15.57Q257.44 14.44 257.44 13.11L257.44 13.11L257.44 12.61Q257.44 11.07 257.89 9.85Q258.35 8.64 259.14 7.80Q259.92 6.95 260.92 6.52Q261.91 6.09 262.98 6.09L262.98 6.09Q264.34 6.09 265.33 6.55Q266.32 7.02 266.95 7.86Q267.59 8.70 267.89 9.83Q268.20 10.96 268.20 12.30L268.20 12.30L268.20 13.27L258.73 13.27L258.73 11.50L266.03 11.50L266.03 11.34Q265.98 10.49 265.68 9.70Q265.38 8.90 264.74 8.38Q264.09 7.87 262.98 7.87L262.98 7.87Q262.24 7.87 261.62 8.18Q261 8.49 260.55 9.10Q260.11 9.71 259.86 10.59Q259.62 11.46 259.62 12.61L259.62 12.61L259.62 13.11Q259.62 14.01 259.87 14.80Q260.12 15.59 260.61 16.19Q261.09 16.79 261.79 17.13Q262.49 17.46 263.38 17.46L263.38 17.46Q264.53 17.46 265.32 17.00Q266.12 16.53 266.72 15.74L266.72 15.74L268.03 16.79Q267.62 17.41 266.99 17.97Q266.36 18.53 265.44 18.88Q264.52 19.23 263.26 19.23ZM273.23 20.15L274.14 17.69L277.66 6.32L279.98 6.32L274.90 20.96Q274.72 21.43 274.44 21.97Q274.15 22.52 273.70 23.01Q273.26 23.50 272.63 23.81Q272.00 24.12 271.14 24.12L271.14 24.12Q270.88 24.12 270.48 24.05Q270.08 23.98 269.92 23.93L269.92 23.93L269.91 22.18Q270 22.19 270.21 22.21Q270.41 22.22 270.49 22.22L270.49 22.22Q271.23 22.22 271.75 22.03Q272.26 21.84 272.62 21.38Q272.98 20.93 273.23 20.15L273.23 20.15ZM269.18 6.32L271.55 6.32L274.84 16.16L275.40 18.45L273.84 19.25L269.18 6.32Z"/></svg></svg>